<?xml version="1.0" standalone="no"?>
<!DOCTYPE svg PUBLIC "-//W3C//DTD SVG 20010904//EN"
 "http://www.w3.org/TR/2001/REC-SVG-20010904/DTD/svg10.dtd">
<svg version="1.0" xmlns="http://www.w3.org/2000/svg"
 width="700.000000pt" height="700.000000pt" viewBox="0 0 700.000000 700.000000"
 preserveAspectRatio="xMidYMid meet">
<metadata>
Created by potrace 1.11, written by Peter Selinger 2001-2013
</metadata>
<g transform="translate(0.000000,700.000000) scale(0.100000,-0.100000)"
fill="#000000" stroke="none">
<path d="M3298 6935 c-2 -2 -50 -5 -108 -9 -112 -6 -159 -11 -285 -27 -132
-17 -169 -23 -320 -55 -66 -14 -127 -27 -135 -29 -410 -95 -849 -282 -1177
-501 -198 -132 -322 -233 -488 -399 -234 -234 -376 -429 -520 -715 -106 -209
-203 -512 -231 -718 -3 -26 -8 -56 -10 -67 -28 -142 -24 -592 6 -775 6 -30 12
-73 16 -95 25 -171 109 -445 192 -630 226 -499 598 -896 1111 -1185 l89 -50 0
-771 c0 -688 2 -772 16 -794 24 -36 68 -56 108 -48 18 3 152 86 298 183 146
97 315 208 375 248 61 39 117 76 125 82 8 6 94 63 190 126 96 64 304 201 463
306 l287 191 83 -3 c45 -1 107 -3 137 -3 73 0 371 12 396 17 10 2 51 7 89 11
459 45 910 172 1323 370 671 323 1177 822 1448 1425 43 96 105 261 120 320 56
217 56 218 80 380 31 208 22 649 -17 800 -4 19 -11 53 -14 75 -31 201 -195
620 -306 782 -16 23 -29 44 -29 47 0 15 -148 219 -234 321 -52 62 -243 255
-308 313 -59 51 -222 177 -284 219 -254 173 -537 314 -869 433 -144 52 -394
117 -595 155 -74 14 -295 45 -360 50 -41 3 -91 8 -110 11 -36 4 -548 13 -552
9z m482 -219 c58 -4 121 -9 140 -11 19 -2 63 -7 98 -10 215 -21 570 -100 811
-182 703 -237 1276 -671 1613 -1222 100 -162 206 -401 250 -561 5 -19 13 -51
19 -70 15 -57 40 -172 45 -210 3 -19 7 -46 9 -60 25 -134 24 -555 0 -640 -2
-8 -6 -33 -9 -55 -4 -35 -14 -89 -30 -160 -64 -297 -217 -618 -430 -905 -114
-153 -326 -365 -501 -501 -65 -50 -218 -153 -320 -216 -123 -75 -378 -196
-536 -254 -88 -32 -291 -99 -318 -104 -9 -2 -53 -12 -97 -24 -151 -39 -389
-81 -539 -96 -33 -3 -78 -9 -100 -11 -22 -3 -175 -7 -340 -9 -165 -2 -309 -7
-320 -12 -11 -4 -121 -75 -245 -157 -232 -154 -666 -441 -1085 -718 l-240
-159 -5 710 -5 710 -29 30 c-17 17 -33 31 -38 31 -16 0 -216 115 -316 182
-351 235 -606 517 -784 868 -86 169 -157 363 -194 530 -2 11 -6 30 -9 43 -72
298 -80 720 -19 1042 172 904 894 1657 1920 2000 183 61 377 111 549 140 177
30 197 33 270 40 33 4 71 8 85 10 14 3 86 7 160 11 74 4 136 7 137 8 5 4 308
-2 403 -8z"/>
</g>
</svg>
